<svg width="21" height="21" viewBox="0 0 21 21" fill="none" xmlns="http://www.w3.org/2000/svg">
<g clip-path="url(#clip0_959_172)">
<path d="M18.8016 2.63723C16.4309 0.643868 12.7682 0.943282 10.5 3.25246C8.23184 0.943282 4.56915 0.639766 2.19844 2.63723C-0.885933 5.23352 -0.434761 9.46633 1.76368 11.7099L8.95782 19.0394C9.36797 19.4577 9.91758 19.6915 10.5 19.6915C11.0865 19.6915 11.632 19.4618 12.0422 19.0435L19.2363 11.714C21.4307 9.47043 21.89 5.23762 18.8016 2.63723ZM17.8336 10.3277L10.6395 17.6571C10.541 17.7556 10.459 17.7556 10.3606 17.6571L3.16641 10.3277C1.66934 8.80188 1.36582 5.91438 3.46583 4.1466C5.06133 2.80539 7.52227 3.00637 9.06446 4.57727L10.5 6.04152L11.9356 4.57727C13.4859 2.99816 15.9469 2.80539 17.5342 4.1425C19.6301 5.91027 19.3184 8.81418 17.8336 10.3277Z" fill="white"/>
</g>
<defs>
<clipPath id="clip0_959_172">
<rect width="21" height="21" fill="white"/>
</clipPath>
</defs>
</svg>
