<svg width="21" height="17" viewBox="0 0 21 17" fill="none" xmlns="http://www.w3.org/2000/svg">
<path d="M2.83317 16.1668C2.30609 16.1668 1.85503 15.9793 1.48 15.6043C1.10498 15.2293 0.917143 14.7779 0.916504 14.2502V2.75016C0.916504 2.22308 1.10434 1.77202 1.48 1.397C1.85567 1.02197 2.30673 0.834135 2.83317 0.833496H18.1665C18.6936 0.833496 19.145 1.02133 19.5206 1.397C19.8963 1.77266 20.0838 2.22372 20.0832 2.75016V14.2502C20.0832 14.7772 19.8957 15.2286 19.5206 15.6043C19.1456 15.98 18.6942 16.1675 18.1665 16.1668H2.83317ZM10.4998 9.4585L18.1665 4.66683V2.75016L10.4998 7.54183L2.83317 2.75016V4.66683L10.4998 9.4585Z" fill="black"/>
</svg>
