<svg width="20" height="23" viewBox="0 0 20 23" fill="none" xmlns="http://www.w3.org/2000/svg">
<path d="M6.52186 11.3721C5.79462 10.3196 5.362 9.04964 5.27274 8.94176C6.33786 8.19918 8.421 7.26604 8.53764 5.92711C8.68605 4.19718 5.75519 0.580709 5.19333 0.547852C3.65562 0.56428 0.841406 3.16657 0.507906 3.95295C-0.111999 5.57883 0.195216 7.0919 1.26088 9.28238C2.61788 12.5407 7.65817 18.7217 10.5414 20.6619C12.4493 22.1262 13.843 22.7012 15.5072 22.354C16.281 22.2073 19.0755 19.9144 19.3553 18.3641C19.4238 17.7891 16.1753 13.9771 14.4952 13.826C13.1908 13.7055 11.94 15.6583 11.0435 16.6128C10.9543 16.4989 10.1898 15.9025 9.36948 14.9584C8.30162 13.8364 7.30933 12.5183 6.52186 11.3721Z" fill="black"/>
</svg>
